/* XPM */
static char *image[] = {
"32 32 339 2",
"   c None",
"00 c #492f05",
"10 c #6d4409",
"20 c #5b3907",
"30 c #4e3106",
"40 c #332004",
"50 c #553405",
"60 c #683e05",
"70 c #7a4605",
"80 c #6e3f06",
"90 c #5e3705",
":0 c #402803",
";0 c #734a0a",
"A0 c #ee9818",
"B0 c #ed9717",
"C0 c #e59015",
"D0 c #c77c12",
"E0 c #7b4d0a",
"F0 c #472d05",
"G0 c #442b05",
"H0 c #7c4908",
"I0 c #e3820c",
"J0 c #ed870c",
"K0 c #eb840a",
"L0 c #ea8209",
"M0 c #b56507",
"N0 c #5a3605",
"O0 c #754c0b",
"P0 c #f6a01b",
"Q0 c #ef9a19",
"R0 c #ea9516",
"S0 c #cc8112",
"T0 c #674208",
"U0 c #432804",
"V0 c #a8650c",
"W0 c #f08d0f",
"X0 c #f6900f",
"Y0 c #f78e0d",
"Z0 c #f68c0c",
"a0 c #ed860c",
"b0 c #df7d0a",
"c0 c #643d06",
"d0 c #79500c",
"e0 c #f8a21b",
"f0 c #f39e19",
"g0 c #ed9919",
"h0 c #eb9718",
"i0 c #af7011",
"j0 c #5c3a07",
"k0 c #764909",
"l0 c #f69513",
"m0 c #f89612",
"n0 c #f8900f",
"o0 c #f88f0e",
"p0 c #f18b0d",
"q0 c #c4720a",
"r0 c #5e3a06",
"s0 c #7b530f",
"t0 c #fcb63f",
"u0 c #fbad29",
"v0 c #f39f1a",
"w0 c #eb9818",
"x0 c #b17212",
"y0 c #d68513",
"z0 c #f89412",
"01 c #f89210",
"11 c #f8910f",
"21 c #f48e0f",
"31 c #744607",
"41 c #7e5611",
"51 c #fdc158",
"61 c #fdc86b",
"71 c #fcc76a",
"81 c #fcb640",
"91 c #f9a41c",
":1 c #ed9c1b",
";1 c #915f0e",
"A1 c #684309",
"B1 c #f79c18",
"C1 c #fa9d17",
"D1 c #f99c16",
"E1 c #f99b16",
"F1 c #f99a15",
"G1 c #f99914",
"H1 c #f99814",
"I1 c #f99713",
"J1 c #f89512",
"K1 c #f89411",
"L1 c #f89311",
"M1 c #8e5609",
"N1 c #62410a",
"O1 c #78520e",
"P1 c #885c10",
"Q1 c #d49628",
"R1 c #fdc35c",
"S1 c #fdc96f",
"T1 c #fbac23",
"U1 c #fba91e",
"V1 c #f9a61e",
"W1 c #ee9d1c",
"X1 c #7a4f0b",
"Y1 c #784d0a",
"Z1 c #faa119",
"a1 c #faa019",
"b1 c #fa9e18",
"c1 c #faa120",
"d1 c #a46d1a",
"e1 c #724809",
"f1 c #734809",
"g1 c #734708",
"h1 c #684008",
"i1 c #6d490b",
"j1 c #d6a041",
"k1 c #fdc561",
"l1 c #f8a81f",
"m1 c #e4981b",
"n1 c #68450a",
"o1 c #7c500b",
"p1 c #faa41c",
"q1 c #faa31b",
"r1 c #faa21a",
"s1 c #faa626",
"t1 c #956824",
"u1 c #66430b",
"v1 c #b48733",
"w1 c #fdbe49",
"x1 c #f5a720",
"y1 c #7b520c",
"z1 c #7e530d",
"02 c #fba71e",
"12 c #fba61d",
"22 c #fba51c",
"32 c #faa928",
"42 c #976b25",
"52 c #67440b",
"62 c #efaf32",
"72 c #fcb325",
"82 c #faae23",
"92 c #a97315",
":2 c #6c470a",
";2 c #fbab20",
"A2 c #fbaa1f",
"B2 c #fba81e",
"C2 c #fbac2a",
"D2 c #996d26",
"E2 c #68460b",
"F2 c #a17318",
"G2 c #9f7317",
"H2 c #9f7217",
"I2 c #a07217",
"J2 c #9f7116",
"K2 c #dd9f22",
"L2 c #e9a321",
"M2 c #6f490b",
"N2 c #fcae22",
"O2 c #fcad21",
"P2 c #fcac21",
"Q2 c #fbb02c",
"R2 c #9a6f26",
"S2 c #886014",
"T2 c #fec02e",
"U2 c #c3891c",
"V2 c #fcb124",
"W2 c #fcb023",
"X2 c #fcaf23",
"Y2 c #fcb22e",
"Z2 c #9c7027",
"a2 c #8a6316",
"b2 c #febd2b",
"c2 c #fdb526",
"d2 c #fdb426",
"e2 c #fcb225",
"f2 c #fcb530",
"g2 c #9d7128",
"h2 c #8b651a",
"i2 c #ffc334",
"j2 c #ffc231",
"k2 c #feba2a",
"l2 c #fdb828",
"m2 c #fdb728",
"n2 c #fdb627",
"o2 c #fdb932",
"p2 c #a0742a",
"q2 c #8d661d",
"r2 c #ffcb4c",
"s2 c #ffca4a",
"t2 c #ffc63f",
"u2 c #fec02f",
"v2 c #bd8a1d",
"w2 c #febb2b",
"x2 c #fdba2a",
"y2 c #fdb929",
"z2 c #fdbc34",
"03 c #a2762b",
"13 c #6e4c10",
"23 c #a6813a",
"33 c #aa8741",
"43 c #aa863f",
"53 c #aa863e",
"63 c #aa863d",
"73 c #a9853b",
"83 c #dfac37",
"93 c #ffc63d",
":3 c #ffc53a",
";3 c #ffc437",
"A3 c #ecbd50",
"B3 c #77520d",
"C3 c #febf2d",
"D3 c #febe2c",
"E3 c #febc2b",
"F3 c #febf37",
"G3 c #a2782b",
"H3 c #775111",
"I3 c #f3be45",
"J3 c #ffc946",
"K3 c #ffc843",
"L3 c #ffc740",
"M3 c #ffcf5d",
"N3 c #b78e37",
"O3 c #7c550f",
"P3 c #ffc333",
"Q3 c #ffc230",
"R3 c #fec12e",
"S3 c #fec02d",
"T3 c #fec339",
"U3 c #a47a2b",
"V3 c #7a5414",
"W3 c #af852e",
"X3 c #ffcb50",
"Y3 c #ffca4d",
"Z3 c #ffc94a",
"a3 c #ffdb85",
"b3 c #896116",
"c3 c #8b6315",
"d3 c #ecb536",
"e3 c #ecb433",
"f3 c #ecb330",
"g3 c #ecb32d",
"h3 c #ecb42f",
"i3 c #956b18",
"j3 c #865f1c",
"k3 c #d1a648",
"l3 c #ffd060",
"m3 c #ffce59",
"n3 c #f1c96d",
"o3 c #7f5713",
"p3 c #724b0d",
"q3 c #865d14",
"r3 c #dca933",
"s3 c #986c1a",
"t3 c #6e490a",
"u3 c #7b530e",
"v3 c #7c5719",
"w3 c #936c29",
"x3 c #a07a32",
"y3 c #dcb35b",
"z3 c #ffd570",
"04 c #ffd46c",
"14 c #ffd266",
"24 c #ffd163",
"34 c #ffdb87",
"44 c #fee19c",
"54 c #92691e",
"64 c #ae822a",
"74 c #fac64b",
"84 c #ffc949",
"94 c #ffc846",
":4 c #cd9c2f",
";4 c #97722e",
"A4 c #ffd87d",
"B4 c #ffd779",
"C4 c #ffd676",
"D4 c #ffd673",
"E4 c #ffd672",
"F4 c #ffe199",
"G4 c #ffeab9",
"H4 c #ac8439",
"I4 c #875f17",
"J4 c #f4c554",
"K4 c #ffcd56",
"L4 c #ffcc53",
"M4 c #ffcb4f",
"N4 c #ffca4c",
"O4 c #8b6115",
"P4 c #997432",
"Q4 c #ffdd8c",
"R4 c #ffdc89",
"S4 c #ffdb86",
"T4 c #ffda83",
"U4 c #ffd97f",
"V4 c #ffdd8d",
"W4 c #ffeab8",
"X4 c #ffebbd",
"Y4 c #c8a45a",
"Z4 c #8b631c",
"a4 c #fcce61",
"b4 c #ffd05f",
"c4 c #ffcf5c",
"d4 c #ffd165",
"e4 c #ffd36b",
"f4 c #906519",
"g4 c #9a7635",
"h4 c #ffe096",
"i4 c #ffdf92",
"j4 c #ffe4a3",
"k4 c #ffecbe",
"l4 c #fff0ce",
"m4 c #feebbd",
"n4 c #c29e54",
"o4 c #88601a",
"p4 c #cba148",
"q4 c #ffd369",
"r4 c #ffdd8b",
"s4 c #f2daa2",
"t4 c #865c14",
"u4 c #9c7a39",
"v4 c #ffeab6",
"w4 c #ffecbd",
"x4 c #fff1cf",
"y4 c #fff2d4",
"z4 c #fff0cd",
"05 c #e4ca93",
"15 c #946e2a",
"25 c #8a621c",
"35 c #b78d3c",
"45 c #f4d58f",
"55 c #e0ca9b",
"65 c #946d27",
"75 c #9f7b3e",
"85 c #fff4da",
"95 c #fff1d1",
":5 c #f5e2ba",
";5 c #e0c895",
"A5 c #a27e3d",
"B5 c #8a6119",
"C5 c #825918",
"D5 c #9a7537",
"E5 c #8f6928",
"F5 c #8a6322",
"                                                                ",
"                                                                ",
"                                                  F5E5D5C5      ",
"                        B5                    A5;5:5958575      ",
"                    6555453525            1505z4y4x4w4v4u4      ",
"                  t4s4v4r4q4p4        o4n4m4l4k4j4i4i4h4g4      ",
"                  f4e4d4c4b4a4Z4      Y4X4W4V4U4T4S4R4Q4P4      ",
"                  O4N4M4L4K4J4I4    H4G4F4E4D4C4B4A4U4T4;4      ",
"                    :494847464    5444342414q404z3y3x3w3v3      ",
"                  u3t3s3r3q3p3  o3n3T4K4m3c4l3k3j3              ",
"                  i3h3g3f3e3d3c3b3a3Z3Y3X3L4W3V3                ",
"                  U3T3S3R3Q3P3O3N3M3L3K3J3I3H3                  ",
"                  G3F3E3D3C3S3B3A3P3;3:3938373635343332313      ",
"                  03z2y2x2w2E3v2u2S3R3Q3P3;3t2K3J3s2r2Y3q2      ",
"                  p2o2n2m2l2y2k2w2E3D3C3S3R3j2i2;3:393L3h2      ",
"                  g2f2e2d2c2n2m2l2y2k2w2b2D3C3S3R3j2i2;3a2      ",
"                  Z2Y2X2W2V2e2U2c2n2m2l2y2k2w2b2D3C3T2R3S2      ",
"                  R2Q2P2O2N2X2M2L2e2d2c2n2K2J2J2I2H2G2F2E2      ",
"                  D2C2B2A2;2P2:29282W2V2726252                  ",
"                  4232221202B2z1y1x1O2N2X2w1v1u1                ",
"                  t1s1r1q1p122o1n1m1l1;2P2O2k1j1i1              ",
"      h1g1f1f1f1e1d1c1b1a1Z1r1Y1  X1W1V1U1A2T1S1R1Q1P1O1N1      ",
"      M1L1K1J1I1H1G1F1E1D1C1B1A1    ;1:1911202U18171615141      ",
"      31211101L1z0J1I1H1G1F1y0        x0w0v0p1221202u0t0s0      ",
"      r0q0p0o0n01101L1z0m0l0k0        j0i0h0g0f0e0p12212d0      ",
"        c0b0a0Z0Y0o0n0X0W0V0U0            T0S0R0h0Q0f0P0O0      ",
"          N0M0L0K0a0J0I0H0G0                F0E0D0C0B0A0;0      ",
"            :09080706050                        4030201000      ",
"                                                                ",
"                                                                ",
"                                                                ",
"                                                                "};
