/* XPM */
static char *image[] = {
"48 48 696 2",
"   c None",
"00 c #224f03",
"10 c #335d10",
"20 c #325f11",
"30 c #285308",
"40 c #89b562",
"50 c #8cb763",
"60 c #6e9a48",
"70 c #3c6819",
"80 c #255205",
"90 c #7daa56",
":0 c #bdea92",
";0 c #92be69",
"A0 c #2d590d",
"B0 c #6b9745",
"C0 c #c3f096",
"D0 c #bdee8d",
"E0 c #aad681",
"F0 c #2d590c",
"G0 c #2c580b",
"H0 c #b2de87",
"I0 c #b7ea85",
"J0 c #6ec12a",
"K0 c #4dab08",
"L0 c #49a806",
"M0 c #5bb317",
"N0 c #97d760",
"O0 c #6a9745",
"P0 c #305d0e",
"Q0 c #79c835",
"R0 c #4aaa05",
"S0 c #45a401",
"T0 c #4baa04",
"U0 c #51b009",
"V0 c #6bc023",
"W0 c #aee777",
"X0 c #275406",
"Y0 c #afdb85",
"Z0 c #a3e06b",
"a0 c #4aa905",
"b0 c #8dd24f",
"c0 c #9fcb76",
"d0 c #82c84c",
"e0 c #47a603",
"f0 c #89d546",
"g0 c #beea92",
"h0 c #9cc772",
"i0 c #ace477",
"j0 c #48a704",
"k0 c #bfee92",
"l0 c #7aa553",
"m0 c #b5e886",
"n0 c #4aa907",
"o0 c #a1e066",
"p0 c #92be6a",
"q0 c #244e02",
"r0 c #5a8535",
"s0 c #4eac0b",
"t0 c #92d25e",
"u0 c #add882",
"v0 c #335f12",
"w0 c #5ab417",
"x0 c #406c1d",
"y0 c #325f12",
"z0 c #75c437",
"01 c #60b425",
"11 c #aeda84",
"21 c #9ddb67",
"31 c #4d7829",
"41 c #7fac59",
"51 c #436e1f",
"61 c #214d00",
"71 c #6d9a47",
"81 c #b3e784",
"91 c #42a202",
":1 c #527f2f",
";1 c #a0db6f",
"A1 c #47a406",
"B1 c #53ac16",
"C1 c #94d360",
"D1 c #75a14f",
"E1 c #a1e261",
"F1 c #b5e883",
"G1 c #618b3b",
"H1 c #6abb2c",
"I1 c #80ab58",
"J1 c #ade27c",
"K1 c #8dce57",
"L1 c #72bf37",
"M1 c #65b926",
"N1 c #9adc5f",
"O1 c #6c9745",
"P1 c #5c8737",
"Q1 c #b3e684",
"R1 c #b0e380",
"S1 c #77a350",
"T1 c #ade37c",
"U1 c #85cb4f",
"V1 c #467223",
"W1 c #7cc543",
"X1 c #6abd2b",
"Y1 c #b8eb84",
"Z1 c #2c590b",
"a1 c #a8d37e",
"b1 c #7cc545",
"c1 c #41a201",
"d1 c #48a508",
"e1 c #beed91",
"f1 c #7ca856",
"g1 c #a2db70",
"h1 c #86cb50",
"i1 c #aeda83",
"j1 c #376315",
"k1 c #7ec746",
"l1 c #8dd74a",
"m1 c #82ad5b",
"n1 c #396617",
"o1 c #48a608",
"p1 c #46a405",
"q1 c #578333",
"r1 c #8cb864",
"s1 c #91d15d",
"t1 c #89ce54",
"u1 c #b6e28b",
"v1 c #7ec747",
"w1 c #75c92d",
"x1 c #bdea91",
"y1 c #214d02",
"z1 c #80ac5a",
"02 c #9bd768",
"12 c #4ca80d",
"22 c #83c84b",
"32 c #356114",
"42 c #79c340",
"52 c #8ed159",
"62 c #7ec646",
"72 c #72c52d",
"82 c #b9ed86",
"92 c #305c0f",
":2 c #bae68f",
";2 c #42a201",
"A2 c #49a60a",
"B2 c #4ba80c",
"C2 c #abe17b",
"D2 c #aad680",
"E2 c #346013",
"F2 c #c2ee96",
"G2 c #62b526",
"H2 c #9ad867",
"I2 c #a4d17b",
"J2 c #79c33f",
"K2 c #74c335",
"L2 c #abe76f",
"M2 c #4e7a2a",
"N2 c #2b580c",
"O2 c #45a404",
"P2 c #43a203",
"Q2 c #61b426",
"R2 c #6e9948",
"S2 c #a6de75",
"T2 c #ade37d",
"U2 c #5b8837",
"V2 c #c3ef96",
"W2 c #76c439",
"X2 c #a6e567",
"Y2 c #5d8838",
"Z2 c #507e2d",
"a2 c #a1dc70",
"b2 c #43a202",
"c2 c #45a405",
"d2 c #49a608",
"e2 c #4ba60b",
"f2 c #4da80d",
"g2 c #76c03b",
"h2 c #386416",
"i2 c #b5e08a",
"j2 c #85ca4e",
"k2 c #568132",
"l2 c #87b35f",
"m2 c #b1e481",
"n2 c #78c43b",
"o2 c #a3e462",
"p2 c #679240",
"q2 c #82af5c",
"r2 c #79c33e",
"s2 c #41a100",
"t2 c #43a302",
"u2 c #45a304",
"v2 c #47a508",
"w2 c #49a50a",
"x2 c #4ba80d",
"y2 c #51aa11",
"z2 c #53ab14",
"03 c #57ae19",
"13 c #5eb422",
"23 c #afe480",
"33 c #b0e480",
"43 c #65b82a",
"53 c #97d662",
"63 c #9bd867",
"73 c #7bc63d",
"83 c #a7e568",
"93 c #638e3e",
":3 c #b2df88",
";3 c #55af14",
"A3 c #44a203",
"B3 c #47a407",
"C3 c #4ba70c",
"D3 c #4da90e",
"E3 c #5bb11d",
"F3 c #61b524",
"G3 c #6ebc33",
"H3 c #7ac540",
"I3 c #c1ef95",
"J3 c #689443",
"K3 c #6b9846",
"L3 c #c3f097",
"M3 c #7fc846",
"N3 c #7dc93c",
"O3 c #afe976",
"P3 c #548130",
"Q3 c #214e02",
"R3 c #c0ee94",
"S3 c #48a607",
"T3 c #49a609",
"U3 c #4ba70b",
"V3 c #4da80e",
"W3 c #4fa910",
"X3 c #53ac15",
"Y3 c #58ae1a",
"Z3 c #5db221",
"a3 c #67b82b",
"b3 c #70bf35",
"c3 c #91d25b",
"d3 c #2c590c",
"e3 c #b5e18b",
"f3 c #a4de72",
"g3 c #7cca3a",
"h3 c #bfee8f",
"i3 c #2f5c0e",
"j3 c #a8df77",
"k3 c #4ba60a",
"l3 c #4ca70d",
"m3 c #4fa90f",
"n3 c #51ab13",
"o3 c #53ab15",
"p3 c #5aaf1b",
"q3 c #5db320",
"r3 c #72c037",
"s3 c #80c746",
"t3 c #c0ee93",
"u3 c #baeb8c",
"v3 c #7fc843",
"w3 c #86cf44",
"x3 c #4c7828",
"y3 c #88ce4f",
"z3 c #4da90f",
"04 c #50aa11",
"14 c #52ab14",
"24 c #54ac16",
"34 c #56af18",
"44 c #5fb322",
"54 c #75c13a",
"64 c #77c33b",
"74 c #82ca48",
"84 c #91d25a",
"94 c #81c945",
":4 c #82cb45",
";4 c #93d854",
"A4 c #1f4d00",
"B4 c #709c4a",
"C4 c #74c236",
"D4 c #52ac13",
"E4 c #54ad16",
"F4 c #56ae18",
"G4 c #58af1a",
"H4 c #5ab01d",
"I4 c #5eb321",
"J4 c #64b627",
"K4 c #74c138",
"L4 c #75c239",
"M4 c #76c33b",
"N4 c #78c33d",
"O4 c #7ac53e",
"P4 c #7bc63f",
"Q4 c #7ec842",
"R4 c #a1e167",
"S4 c #305d0f",
"T4 c #94c06c",
"U4 c #67bb27",
"V4 c #55ad17",
"W4 c #58ae19",
"X4 c #5ab01c",
"Y4 c #5bb11e",
"Z4 c #60b322",
"a4 c #62b424",
"b4 c #65b629",
"c4 c #67b82a",
"d4 c #73c037",
"e4 c #74c038",
"f4 c #77c43c",
"g4 c #79c43d",
"h4 c #7cc63f",
"i4 c #7dc741",
"j4 c #7ec943",
"k4 c #80c943",
"l4 c #83cb47",
"m4 c #9dd869",
"n4 c #bbed8a",
"o4 c #3c681a",
"p4 c #abd781",
"q4 c #5fb31f",
"r4 c #59b01b",
"s4 c #5bb21e",
"t4 c #5db220",
"u4 c #5fb422",
"v4 c #61b424",
"w4 c #62b626",
"x4 c #68b92c",
"y4 c #6abb2d",
"z4 c #6bba30",
"05 c #71c036",
"15 c #73c038",
"25 c #75c139",
"35 c #76c23a",
"45 c #78c33c",
"55 c #78c43d",
"65 c #7bc53e",
"75 c #7bc53f",
"85 c #7dc740",
"95 c #7dc742",
":5 c #7ec843",
";5 c #80c944",
"A5 c #82cb46",
"B5 c #9bd666",
"C5 c #b2e283",
"D5 c #a7d27e",
"E5 c #265207",
"F5 c #224e02",
"G5 c #bcea91",
"H5 c #5db11f",
"I5 c #5cb11f",
"J5 c #5fb321",
"K5 c #60b423",
"L5 c #66b829",
"M5 c #6fbe32",
"N5 c #70bf36",
"O5 c #73c330",
"P5 c #79cb31",
"Q5 c #84d13c",
"R5 c #87d541",
"S5 c #80ce3a",
"T5 c #7bc838",
"U5 c #7ec642",
"V5 c #7cc640",
"W5 c #7ec742",
"X5 c #7fc943",
"Y5 c #80ca44",
"Z5 c #81ca44",
"a5 c #83cb46",
"b5 c #83cc47",
"c5 c #87cd4a",
"d5 c #a0d86e",
"e5 c #aadf78",
"f5 c #bcea8f",
"g5 c #234d00",
"h5 c #bbeb8e",
"i5 c #5eb222",
"j5 c #60b323",
"k5 c #62b524",
"l5 c #63b627",
"m5 c #65b729",
"n5 c #69b92c",
"o5 c #7ecd36",
"p5 c #9fe160",
"q5 c #bbee89",
"r5 c #bbed88",
"s5 c #8dd643",
"t5 c #88d044",
"u5 c #83ce42",
"v5 c #82cb43",
"w5 c #81cb41",
"x5 c #82ca46",
"y5 c #83cc46",
"z5 c #84cc47",
"06 c #8ad04d",
"16 c #93d35b",
"26 c #a5db71",
"36 c #a8df71",
"46 c #b1e380",
"56 c #b3da8d",
"66 c #255105",
"76 c #376316",
"86 c #b1e583",
"96 c #62b525",
":6 c #62b627",
";6 c #65b728",
"A6 c #67b92a",
"B6 c #68b82c",
"C6 c #6aba2d",
"D6 c #71c131",
"E6 c #84d23b",
"F6 c #b0ea78",
"G6 c #bbe790",
"H6 c #5e8939",
"I6 c #416e1e",
"J6 c #4b7728",
"K6 c #90bb68",
"L6 c #bbeb8b",
"M6 c #8bd344",
"N6 c #8dd447",
"O6 c #93d750",
"P6 c #93d652",
"Q6 c #a0db64",
"R6 c #a6de6e",
"S6 c #aadf75",
"T6 c #c5ec9f",
"U6 c #487526",
"V6 c #4d7929",
"W6 c #abe17a",
"X6 c #64b628",
"Y6 c #66b82a",
"Z6 c #6bbb30",
"a6 c #6dbd31",
"b6 c #6fbd32",
"c6 c #70bf33",
"d6 c #7ecd37",
"e6 c #b1e97d",
"f6 c #699543",
"g6 c #275206",
"h6 c #2c570a",
"i6 c #8ed54a",
"j6 c #94d752",
"k6 c #9ad95d",
"l6 c #9eda61",
"m6 c #a1dc67",
"n6 c #a4de6d",
"o6 c #a8df72",
"p6 c #bbe691",
"q6 c #9dc477",
"r6 c #245005",
"s6 c #608d3b",
"t6 c #a6dd75",
"u6 c #68b92b",
"v6 c #69ba2d",
"w6 c #6bbb2f",
"x6 c #6cbc31",
"y6 c #70be33",
"z6 c #74c531",
"07 c #a0e061",
"17 c #6d9947",
"27 c #244f03",
"37 c #85b05e",
"47 c #c4f099",
"57 c #92d651",
"67 c #96d856",
"77 c #99d85b",
"87 c #9cdb5f",
"97 c #a0db65",
":7 c #a3dd6b",
";7 c #a6df70",
"A7 c #b4e485",
"B7 c #bce098",
"C7 c #295407",
"D7 c #315e0f",
"E7 c #a4dd72",
"F7 c #6aba2e",
"G7 c #6cbb30",
"H7 c #6ebd32",
"I7 c #70bf34",
"J7 c #82cf3e",
"K7 c #bced8a",
"L7 c #a2cd78",
"M7 c #315d0f",
"N7 c #244e03",
"O7 c #214d01",
"P7 c #9cca74",
"Q7 c #c4ee99",
"R7 c #99d95c",
"S7 c #92d64f",
"T7 c #95d754",
"U7 c #98d959",
"V7 c #9bda5d",
"W7 c #9edb63",
"X7 c #a1dc69",
"Y7 c #a5df6e",
"Z7 c #afe37e",
"a7 c #c8eca3",
"b7 c #3e6a1b",
"c7 c #3c6618",
"d7 c #a1db6f",
"e7 c #6dbc31",
"f7 c #6fbd33",
"g7 c #70be34",
"h7 c #73c132",
"i7 c #94d952",
"j7 c #c1ec95",
"k7 c #689442",
"l7 c #255104",
"m7 c #bbea8e",
"n7 c #93d752",
"o7 c #96d857",
"p7 c #99d85c",
"q7 c #9ddb61",
"r7 c #a0dc67",
"s7 c #a4dd6c",
"t7 c #ade17a",
"u7 c #c7eca3",
"v7 c #578334",
"w7 c #285508",
"x7 c #3a6719",
"y7 c #88b461",
"z7 c #9fda6c",
"08 c #70bd34",
"18 c #71bf36",
"28 c #75c334",
"38 c #a7e36b",
"48 c #b3df88",
"58 c #3b6819",
"68 c #265206",
"78 c #204d00",
"88 c #6e9a49",
"98 c #c5f099",
":8 c #a2dd69",
";8 c #98d95a",
"A8 c #9bda5f",
"B8 c #9fdb64",
"C8 c #a3dc6a",
"D8 c #afe27d",
"E8 c #c7eda2",
"F8 c #5c8637",
"G8 c #2e5c0e",
"H8 c #3c6919",
"I8 c #93be6a",
"J8 c #9fdc6b",
"K8 c #73bf37",
"L8 c #77c635",
"M8 c #b2e97e",
"N8 c #9cc873",
"O8 c #2d580b",
"P8 c #bfeb94",
"Q8 c #b4e681",
"R8 c #92d650",
"S8 c #95d753",
"T8 c #97d858",
"U8 c #9ada5d",
"V8 c #a2dd68",
"W8 c #b3e384",
"X8 c #c5eca0",
"Y8 c #598434",
"Z8 c #3c681b",
"a8 c #98c46f",
"b8 c #9eda66",
"c8 c #78c735",
"d8 c #b4eb7f",
"e8 c #c5f199",
"f8 c #7ca855",
"g8 c #295508",
"h8 c #235003",
"i8 c #a9d580",
"j8 c #bcec8e",
"k8 c #95d855",
"l8 c #93d651",
"m8 c #9ad95c",
"n8 c #9dda60",
"o8 c #a2dc69",
"p8 c #bae78f",
"q8 c #bae193",
"r8 c #436f21",
"s8 c #376215",
"t8 c #3b6719",
"u8 c #9dc874",
"v8 c #a0e066",
"w8 c #b3ea7e",
"x8 c #c2ee97",
"y8 c #5f8b3a",
"z8 c #325e11",
"09 c #245003",
"19 c #8eba66",
"29 c #c0ee91",
"39 c #97d856",
"49 c #95d755",
"59 c #98d85a",
"69 c #9bda5e",
"79 c #abe078",
"89 c #c4ec9e",
"99 c #a1cb78",
":9 c #315d10",
";9 c #467224",
"A9 c #a3cf79",
"B9 c #c4f097",
"C9 c #beeb93",
"D9 c #517d2e",
"E9 c #265305",
"F9 c #8cb964",
"G9 c #c0ee90",
"H9 c #96d957",
"I9 c #91d54e",
"J9 c #94d653",
"K9 c #97d958",
"L9 c #9edb62",
"M9 c #b8e68b",
"N9 c #c1e999",
"O9 c #669341",
"P9 c #2e5b0e",
"Q9 c #3d681a",
"R9 c #9ecb76",
"S9 c #b8e58e",
"T9 c #457122",
"U9 c #275306",
"V9 c #8fba66",
"W9 c #bcec8b",
"X9 c #92d74f",
"Y9 c #90d54d",
"Z9 c #92d751",
"a9 c #99d95b",
"b9 c #b1e281",
"c9 c #c3ec9a",
"d9 c #90bc68",
"e9 c #356113",
"f9 c #4a7527",
"g9 c #436f20",
"h9 c #82ae5b",
"i9 c #3a6618",
"j9 c #487425",
"k9 c #2f5b0d",
"l9 c #a4d07a",
"m9 c #b5ea80",
"n9 c #90d64a",
"o9 c #8fd54b",
"p9 c #94d652",
"q9 c #abdf77",
"r9 c #c1ea98",
"s9 c #9fc977",
"t9 c #447022",
"u9 c #3b6618",
"v9 c #426e1f",
"w9 c #224f02",
"x9 c #3f6b1e",
"y9 c #2f5d0f",
"z9 c #497526",
"0: c #b9e48d",
"1: c #a7e26d",
"2: c #8cd446",
"3: c #96d755",
"4: c #ace178",
"5: c #c0eb95",
"6: c #94c06d",
"7: c #477425",
"8: c #325e10",
"9: c #5a8635",
":: c #356215",
";: c #2a5609",
"A: c #80ad59",
"B: c #bdee8f",
"C: c #9adb5a",
"D: c #9ddb60",
"E: c #b2e580",
"F: c #b6e18e",
"G: c #7ba755",
"H: c #376416",
"I: c #386417",
"J: c #588335",
"K: c #2f5b0e",
"L: c #558130",
"M: c #b4e089",
"N: c #c4f198",
"O: c #b6ec81",
"P: c #bae68e",
"Q: c #8bb864",
"R: c #527d2f",
"S: c #285407",
"T: c #2d5a0c",
"U: c #437021",
"V: c #99c570",
"W: c #c3f098",
"X: c #a7d37d",
"Y: c #79a554",
"Z: c #457123",
"a: c #245104",
"b: c #305b0f",
"c: c #2e5a0d",
"d: c #416e1f",
"e: c #739e4d",
"f: c #6f9c4a",
"g: c #406b1d",
"h: c #245004",
"i: c #234f03",
"j: c #255004",
"k: c #214c01",
"l: c #204d01",
"m: c #1f4c00",
"n: c #214b00",
"o: c #204c00",
"p: c #214d03",
"q: c #204b00",
"                                                                                                ",
"                                                                              q:p:o:            ",
"                                                                    n:m:o:l:o:k:j:              ",
"                                                            o:i:h:g:f:e:d:c:                    ",
"                                                      b:a:Z:Y:X:W:V:U:T:                        ",
"                                                g:S:R:Q:P:O:N:M:L:K:                            ",
"                                          J:I:H:G:F:E:D:C:B:A:;:::                              ",
"                                      9:8:7:6:5:4:3:2:1:0:z9y9                    x9w9v9        ",
"                                    u9t9s9r9q9p9o9n9m9l9k9K:                    j9i9h9g9        ",
"                                f9e9d9c9b9a9Z9Y9X9W9V9U9                      g9T9S9R9Q9        ",
"                              P9O9N9M9L9K9J9I9H9G9F9E9                      i9D9C9B9A9I:        ",
"                          ;9:9998979695949X939291909                      z8y8x8w8v8u8t8        ",
"                        s8r8q8p8o8n8m839l8k8j8i8h8                      g8f8e8d8c8b8a8Z8        ",
"                      :9Y8X8W8V8L9U8T8S8R8Q8P8O8                      ;:N8e8M8L8K8J8I8H8        ",
"                    G8F8E8D8C8B8A8;849R8:8988878                  685848e838281808z7y7x7        ",
"                  w7v7u7t7s7r7q7p7o7n7I9m7P8l7                  09k7j7N:i7h7g7f7e7d7G:c7        ",
"                  b7a7Z7Y7X7W7V7U7T7S7R7Q7P7O7              N7M7L7e8K7J7I7f7H7G7F7E788D7        ",
"                C7B7A7;7:79787776757Y9B8473727          i:l717j7N:07z6y6H7x6w6v6u6t6s6          ",
"              r6q6p6o6n6m6l6k6T8j6Y9i6p747X:h6      c:g6f60:e8e6d6c6b6a6Z6v6u6Y6X6W6V6          ",
"              U6T6S6R6:8Q6k6P6O6I9o9N6M6L6e8K6J6I6H619G6e8F6E6D6f7e7G7C6B6A6;6:6968676          ",
"            66564636261606z5y5x5w5v5u5t5s5r5e8e8e8e8q5p5o5D6y6H7G7w6n5u6m5l5k5j5i5h5g6          ",
"          g5H6f5e5d5c5z5b5a5Z5Y5X5W5W5V5U5T5S5R5Q5P5O5N508M5x6w6v6u6L5X696K5J5I5H5G5F5          ",
"          E5D5C5B5z5b5a5A5;5X5:595857565554535251505g7f7e7z4y4x4Y6;6w4v4u4t4s4r4q4p4i:          ",
"          o4n4m4l4a5x5Z5k4j495i4h465g4f43525e4d4I7f7H7G7F7n5c4b4l5a4Z4t4Y4X4W4V4U4T4q:          ",
"        S4h9R4l4a5Z5;5X5Q4i4V5P4O4N4M4L4K4K818y6H7x6w6v6u6m5J496j5I4I5H4G4F4E4D4C4B4A4          ",
"        g648;4:4;5X5Q4W5948474556454L4d418g7b6a6Z6v6u6Y6X6w4K544t4Y4r434241404z3y3x3            ",
"        g8e8w3v3j49585v3u3M:t3s325K4r3I7f7e7G7C6x4A6;6:6k5u4q3Y4p3W4V4o3n3m3l3k3j3i3            ",
"        U:h3g3Q4i4h4P4f3e3d3j7c3K8b3y6H7G7w6n5a3m5l5k5j5Z3I5H4Y3F4X3n3W3V3U3T3S3R3Q3            ",
"        P3O3N3V575O4M3L3K3J3I3H308M5x6w6v6u6L5m5G3F3J5I5E3G434E41404D3C3T3B3A3;3:3o:            ",
"        93837365556463G6O84853f7e7z4y4x4Y6;64333e82313r403V4z2y2m3x2w2v2u2t2s2r2q2o:            ",
"        p2o2n2f43525m2l2k2I3d4G7F7n5c4b4l5a4j2i2h2e8g2V4X3n3W3f2e2d2c2b2s2s2s2a2Z2              ",
"        Y2X2W2L4K4e4V2U2l2T2w6n5u6m5J496j5I4S2R2f6N:Q2D4W3D3U3T3B3P2s2s2s2s2O2R3N2              ",
"        M2L2K2d418J2e8g:I2H2u6Y6X6w4K5J5t4G2F2E2D2C204z3B2A2B3u2;2s2s2s2s2s2Z6:2O7              ",
"        928272I7f762e8z84852;6:6k5u4q3s4p342p432e82212k3v2O2t2s2s2s2s2s2s2s202z1o:              ",
"        y1x1w1H7G7v1e8K:u1t1k5j5Z3I5H4Y3F4s1r1q1e8K5T3p1P2s2s2s2s2s2s2s2s2o1R3n1                ",
"        o:m1l1w6v6k1e8j1i1h1J5I5E3G4F4E414g1f1f6e1d1A3c1s2s2s2s2s2s2s2s2s2b1a1h8                ",
"          Z1Y1X1Y6W1e8V1R9U1Y4r403V4z2y2m3T1S188R1;2s2s2s2s2s2s2s2s2s2s2c1Q1P1                  ",
"          m:O1N1M1L1e8v7Q:K1W4V4X3n3m3f2e2J1I1O9T2s2s2s2s2s2s2s2s2s2s2s2H1G6l7                  ",
"            k:G1F1E1e8D1R2C1B1D4W3D3U3T3A1;1d9:1e191s2s2s2s2s2s2s2s2s2;28171Q3                  ",
"              61F55141R2312104D3B2A2B3u2;2h111E2e801s2s2s2s2s2s2s2s2s2z0G6l7                    ",
"                    y0x0K:B9w0k3v2u2t2s2s2G2e8v0u0t0s2s2s2s2s2s2s2s2s0I3r078                    ",
"                        q0p0o0n0P2s2s2s2s2;2m093l0k0d1s2s2s2s2s2s2j0i0h0i:                      ",
"                          68g0f0e0s2s2s2s2s2d0c076W:b0s2s2s2s2s2a0Z0Y0X0                        ",
"                          m:76j7W0V0U0T0S0R0Q0e8P0O0e8N0M0L0K0J0I0H0G0                          ",
"                            78F0E0e8e8D0r5C0W:B0o:q:A0;0x8e8e8:09080                            ",
"                                l:70605040y830o:      o:w92010h800                              ",
"                                    q:78o:o:                                                    ",
"                                                                                                "};
